<svg width="91" height="37" viewBox="0 0 91 37" fill="none" xmlns="http://www.w3.org/2000/svg">
<rect x="0.5" y="0.5" width="90" height="35.4" rx="1.5" stroke="#8C1515"/>
<rect x="44.9648" width="46.0353" height="36.4" rx="2" fill="#8C1515"/>
<rect x="11.5088" y="8.17029" width="6.26858" height="5.01486" fill="#8C1515"/>
<rect x="20.2847" y="8.17029" width="6.26858" height="5.01486" fill="#8C1515"/>
<rect x="29.0605" y="8.17029" width="6.26858" height="5.01486" fill="#8C1515"/>
<rect x="11.5088" y="15.6925" width="6.26858" height="5.01486" fill="#8C1515"/>
<rect x="20.2847" y="15.6925" width="6.26858" height="5.01486" fill="#8C1515"/>
<rect x="29.0605" y="15.6925" width="6.26858" height="5.01486" fill="#8C1515"/>
<rect x="11.5088" y="23.2148" width="6.26858" height="5.01486" fill="#8C1515"/>
<rect x="20.2847" y="23.2148" width="6.26858" height="5.01486" fill="#8C1515"/>
<rect x="29.0605" y="23.2148" width="6.26858" height="5.01486" fill="#8C1515"/>
<rect x="56.7412" y="8.17029" width="6.26858" height="5.01486" fill="white"/>
<rect x="56.7412" y="15.6925" width="6.26858" height="5.01486" fill="white"/>
<rect x="56.7412" y="23.2148" width="6.26858" height="5.01486" fill="white"/>
<rect x="65.3057" y="24.6235" width="13.9176" height="2.14118" fill="white"/>
<rect x="65.3057" y="17.1294" width="13.9176" height="2.14118" fill="white"/>
<rect x="65.3057" y="9.63538" width="13.9176" height="2.14118" fill="white"/>
</svg>
