<?xml version="1.0" encoding="UTF-8"?>
<svg id="Layer_1" data-name="Layer 1" xmlns="http://www.w3.org/2000/svg" viewBox="0 0 1203.53 581.57">
  <defs>
    <style>
      .cls-1 {
        fill: #fff;
      }
    </style>
  </defs>
  <g>
    <path class="cls-1" d="M273.44,152.69c-7.84,2.04-15.44,4.95-22.72,8.57-5.94,3.13-9.5,9.45-9.13,16.16-.52,4.22,1,8.41,4.04,11.35,3.04,2.96,7.28,4.33,11.45,3.71,5.8.15,11.51-1.52,16.35-4.76v-35.03ZM248.73,206.88c-28.05,0-30.14-21.16-30.14-27.38-.47-12.61,7.7-23.86,19.82-27.38,18.25-6.75,22.34-7.47,35.03-11.51v-3.18c.38-3.86-.1-7.8-1.28-11.51-2.86-7.79-10.6-12.64-18.87-11.83-8.03-.19-15.54,3.89-19.72,10.73l-1.1,2.09-5.18-3.09.52-1.52c5.51-14.16,19.67-23,34.8-21.72,11.45-1.33,22.72,3.61,29.55,12.93,3.86,8.36,5.46,17.58,4.66,26.76v39.87c0,7.28,1.09,12.93,7.18,12.93,1.23.1,2.42-.29,3.37-1.09l1.67-1.33,3.37,3.8-1.09,1.47c-4.47,6.98-12.07,11.32-20.33,11.5-7.08.67-13.69-3.65-15.88-10.4-6.75,6.98-16.06,10.84-25.76,10.6l-.62-.75ZM248.73,206.88"/>
    <path class="cls-1" d="M77.92,206.73c-11.55.19-23.06-1.47-34.08-4.94h-1.52v-29.76h5.99v2.09c.1,4.56,1.76,8.98,4.66,12.51,6.66,5.56,15.16,8.41,23.81,7.93,19.72,0,28.85-7.46,28.85-23.43,0-13.69-8.46-19.35-20.15-27.38l-1.85-1.37-12.31-8.23c-17.16-11.32-25.9-20.44-25.9-38.59,0-9.13,3.37-37.97,46.62-37.97,10.69,0,21.39.8,31.94,2.47h1.9v30.14h-5.66v-2.04c0-4.61-1.8-9.03-4.99-12.41-6.74-4.66-14.92-6.84-23.09-6.08-22.91,0-25.58,11.74-25.58,20.54,0,12.22,6.23,16.3,19.82,25.28l15.68,10.35c13.36,9.13,25.86,17.25,25.86,39.36,0,37.3-34.88,41.44-49.85,41.44l-.15.1ZM77.92,206.73"/>
    <path class="cls-1" d="M180.29,207.35c-15.98,0-24.76-5.76-28.67-18.25-1.28-7.03-1.7-14.16-1.28-21.24v-52.23h-13.59v-4l1.37-.56c4.14-1.52,8.03-3.76,11.5-6.56,6.85-5.9,12.61-12.98,16.97-20.92l2.28-3.91h4.48v23.2h35.11v12.74h-35.11v54.23c0,16.16,2.99,25.38,18.25,25.38,4.37,0,8.69-1,12.69-2.86l2.08-1.09,1.81,4.19-.9,1c-7,7.65-17.07,11.69-27.38,10.89h.38ZM180.29,207.35"/>
    <path class="cls-1" d="M320.64,205.97v-4.37h2c3.47-.24,6.75-1.76,9.13-4.28,3.19-3.56,3.38-12.3,3.38-29.85v-29.75c.9-7.03.23-14.16-2.01-20.92-2.42-2.37-5.74-3.66-9.13-3.56h-2.85v-5.89h3.94c6.13-.19,12.22-.85,18.25-2.04,3.86-.52,7.56-1.76,10.94-3.61l1.09-.57,2.08,1.29v7.93c8.75-6.46,19.3-9.98,30.14-10.03,18.25,0,30.75,8.65,34.21,24.43,1.01,6.03,1.44,12.17,1.39,18.25v30.13c0,16.97.62,21.82,3.8,24.71,2.34,1.81,5.13,2.81,8.03,2.96h2.04v4.74h-5.12c-7.37,0-13.79-.66-20.44-.66s-14.21,0-23.43.8h-2.37v-4.09h1.8c3.14-.24,6.18-1.42,8.6-3.47,3.38-3.37,3.47-11.32,3.71-18.25v-21.82c.15-7.85-.15-15.68-.8-23.53.09-5.66-2.29-11.02-6.52-14.78-4.17-3.7-9.78-5.46-15.39-4.74-6.7-.19-13.36,1.28-19.35,4.27v54.23c0,16.97.75,21.82,3.94,24.72,2.29,1.75,5.04,2.8,7.93,2.9h2.01v4.76h-5.48c-7.13,0-13.35-.62-19.82-.62s-14.49,0-23.71.8h-2.28l.28-.1ZM320.64,205.97"/>
    <path class="cls-1" d="M449.19,205.97v-4.94h2.01c3.47-.18,6.74-1.75,9.13-4.27,3.18-3.56,3.27-12.22,3.27-29.76v-51.19h-13.31v-5.46l1.39-.57c4.27-1.62,8.31-3.75,12.02-6.36-.1-9.13.43-18.3,1.57-27.38,4.09-21.24,18.25-32.13,41.44-32.13,9.03-.15,17.87,2.66,25.19,7.93l.72.67v2.19l-10.22,14.21h-2.47l-.57-1.29c-2.57-7.36-9.55-12.3-17.4-12.22-3.8-.09-7.51,1.24-10.4,3.76-4.47,4.47-5.23,11.12-5.23,24.29v19.87h23.01v12.79h-22.62v57.22c-.91,7.7-.1,15.49,2.28,22.91,2.85,4.37,11.6,4.65,14.26,4.65h2.09v5.48h-2.29c-11.3-.67-19.82-.82-25.86-.82-7.65,0-16.39,0-25.61.82h-2.38v-.39ZM449.19,205.97"/>
    <path class="cls-1" d="M569.11,112.01c-5.28-.29-10.45,1.37-14.59,4.61-8.32,6.94-12.41,19.63-12.41,37.63,0,6.9,1.24,41.59,26.62,41.59,5.27.24,10.45-1.42,14.59-4.65,8.32-6.95,12.5-19.64,12.5-37.6,0-6.95-1.33-41.59-26.71-41.59h0ZM567.82,207.73c-31.45,0-50.27-19.54-50.27-52.38,0-25.56,13.77-55.32,52.46-55.32,31.46,0,50.29,19.64,50.29,52.48,0,25.48-13.79,54.75-52.48,54.75v.47ZM567.82,207.73"/>
    <path class="cls-1" d="M630.23,205.97v-5.17h2.04c3.48-.24,6.7-1.81,9.13-4.33,3.19-3.52,3.38-12.02,3.38-29.57v-29.18c.9-7.03.18-14.16-2.04-20.92-2.38-2.42-5.71-3.7-9.13-3.56h-2.81v-6.18h3.91c6.12-.13,12.25-.85,18.25-2,3.8-.56,7.51-1.52,11.07-2.94l1.18-.52,1.81,1v9.13c6.31-6.61,14.97-10.35,24.09-10.5,6.28-.28,12.46,1.76,17.35,5.76l.62.71v3.24l-9.13,15.96h-4.19l-.67-1.05c-3.6-5.56-9.93-8.74-16.58-8.26-3.99-.15-7.93,1-11.22,3.27v51.91c-.85,7.65-.1,15.4,2.19,22.72,2.9,4.33,11.69,4.66,14.21,4.66h2.19v5.66h-2.29c-11.32-.62-19.77-.82-25.9-.82-7.65,0-16.3,0-25.51.82h-2.38l.43.18ZM630.23,205.97"/>
    <path class="cls-1" d="M768.58,112.63c-20.15,0-29.93,13.77-29.93,42.06,0,11.4,3.27,38.16,33.22,38.16h.9c5.76.1,11.41-1.42,16.35-4.32v-69.06c-5.66-4.94-13.02-7.46-20.54-6.93v.1ZM792.31,207.44l-2.71-.9v-9.13c-8.36,6.18-18.45,9.55-28.85,9.65-28.28,0-46.53-19.63-46.53-50.09-.05-9.4,1.8-18.72,5.56-27.38,8.93-18.82,28.32-30.42,49.19-29.37,6.74,0,13.49.62,20.15,1.9v-21.91c.85-7.51.19-15.16-2-22.42-2.37-2.43-5.71-3.76-9.13-3.56h-2.66v-4.56h2.19c7.41-.57,14.78-1.57,22.1-2.91,3.47-.47,6.9-1.28,10.22-2.37h1l1.81,1.09v1c-.72,8.5-.82,26.66-.82,40.26v84.03c-.8,7.7-.15,15.49,2,22.91,2.38,2.47,5.71,3.84,9.13,3.75h2.66v5.46h-2.19c-6.69.29-13.4,1.01-20,2.19-3.56.43-7.08,1.24-10.46,2.37h-1,.34ZM792.31,207.44"/>
  </g>
  <g>
    <path class="cls-1" d="M46.87,395.76v-88.07h23.57c8.98,0,16.65,1.62,23.03,4.85,6.37,3.23,11.27,8.08,14.68,14.54,3.41,6.46,5.12,14.55,5.12,24.24s-1.68,17.84-5.05,24.44c-3.37,6.6-8.19,11.58-14.48,14.95s-13.78,5.05-22.49,5.05h-24.37ZM62.49,383.1h6.87c5.93,0,10.98-1.14,15.15-3.43,4.18-2.29,7.34-5.77,9.49-10.44,2.15-4.67,3.23-10.64,3.23-17.91s-1.08-13.06-3.23-17.64c-2.15-4.58-5.32-7.95-9.49-10.1-4.17-2.15-9.22-3.23-15.15-3.23h-6.87v62.75Z"/>
    <path class="cls-1" d="M165.24,397.38c-7.63,0-14.37-1.86-20.2-5.59-5.84-3.72-10.39-9.02-13.67-15.89-3.28-6.87-4.92-15.06-4.92-24.58s1.64-17.64,4.92-24.38c3.28-6.73,7.83-11.89,13.67-15.48,5.84-3.59,12.57-5.39,20.2-5.39s14.5,1.8,20.33,5.39c5.84,3.59,10.39,8.75,13.67,15.48,3.28,6.74,4.92,14.86,4.92,24.38s-1.64,17.71-4.92,24.58c-3.28,6.87-7.83,12.17-13.67,15.89-5.84,3.73-12.61,5.59-20.33,5.59ZM165.24,383.77c4.67,0,8.69-1.32,12.05-3.97,3.37-2.64,5.99-6.42,7.88-11.31,1.89-4.89,2.83-10.61,2.83-17.17s-.94-12.19-2.83-16.9c-1.89-4.71-4.51-8.35-7.88-10.91-3.37-2.56-7.39-3.84-12.05-3.84s-8.57,1.28-11.99,3.84c-3.41,2.56-6.06,6.19-7.95,10.91-1.89,4.71-2.83,10.35-2.83,16.9s.94,12.28,2.83,17.17c1.89,4.89,4.53,8.67,7.95,11.31,3.41,2.65,7.41,3.97,11.99,3.97Z"/>
    <path class="cls-1" d="M221.8,395.76v-88.07h53.06v13.2h-37.44v22.49h31.65v13.2h-31.65v25.99h38.78v13.2h-54.41Z"/>
    <path class="cls-1" d="M294.25,395.76v-88.07h29.76c6.1,0,11.58.81,16.43,2.42,4.85,1.62,8.71,4.33,11.58,8.15,2.87,3.82,4.31,9,4.31,15.55s-1.44,11.45-4.31,15.48c-2.87,4.04-6.73,7.05-11.58,9.02-4.85,1.98-10.32,2.96-16.43,2.96h-14.14v34.47h-15.62ZM309.88,348.9h12.52c6.01,0,10.61-1.26,13.8-3.77,3.19-2.51,4.78-6.28,4.78-11.31s-1.59-8.55-4.78-10.57c-3.19-2.02-7.79-3.03-13.8-3.03h-12.52v28.69ZM342.33,395.76l-21.28-38.65,11.31-9.29,27.47,47.94h-17.51Z"/>
    <path class="cls-1" d="M373.98,395.76v-88.07h29.76c6.1,0,11.58.81,16.43,2.42s8.71,4.33,11.58,8.15c2.87,3.82,4.31,9,4.31,15.55s-1.44,11.45-4.31,15.48c-2.87,4.04-6.73,7.05-11.58,9.02-4.85,1.98-10.32,2.96-16.43,2.96h-14.14v34.47h-15.62ZM389.6,348.9h12.52c6.01,0,10.61-1.26,13.8-3.77,3.19-2.51,4.78-6.28,4.78-11.31s-1.59-8.55-4.78-10.57c-3.19-2.02-7.79-3.03-13.8-3.03h-12.52v28.69ZM422.05,395.76l-21.28-38.65,11.31-9.29,27.47,47.94h-17.51Z"/>
    <path class="cls-1" d="M506.36,397.38c-6.11,0-11.87-1.12-17.3-3.37-5.43-2.24-10.26-5.43-14.48-9.56l8.48-10.24c3.14,3.05,6.8,5.41,10.98,7.07,4.17,1.66,8.37,2.49,12.59,2.49,5.03,0,8.84-1.03,11.45-3.1,2.6-2.07,3.9-4.8,3.9-8.22,0-2.42-.59-4.37-1.75-5.86-1.17-1.48-2.76-2.76-4.78-3.84-2.02-1.08-4.38-2.15-7.07-3.23l-12.12-5.25c-2.88-1.26-5.68-2.9-8.42-4.92-2.74-2.02-4.98-4.53-6.73-7.54-1.75-3.01-2.63-6.67-2.63-10.97,0-4.67,1.28-8.86,3.84-12.59s6.06-6.69,10.5-8.89,9.54-3.3,15.29-3.3c5.3,0,10.3.96,15.02,2.89,4.71,1.93,8.73,4.56,12.05,7.88l-8.21,10.23c-2.88-2.33-5.88-4.15-9.02-5.45-3.14-1.3-6.42-1.95-9.83-1.95-4.13,0-7.47.92-10.03,2.76-2.56,1.84-3.84,4.38-3.84,7.61,0,2.25.65,4.11,1.95,5.59,1.3,1.48,3.05,2.74,5.25,3.77,2.2,1.03,4.46,2.04,6.8,3.03l11.99,4.98c3.5,1.53,6.6,3.32,9.29,5.39,2.69,2.07,4.78,4.58,6.26,7.54,1.48,2.96,2.22,6.6,2.22,10.91,0,4.76-1.26,9.11-3.77,13.06-2.51,3.95-6.13,7.12-10.84,9.49-4.71,2.38-10.39,3.57-17.04,3.57Z"/>
    <path class="cls-1" d="M589.44,397.38c-7.45,0-14.21-1.75-20.27-5.25-6.06-3.5-10.86-8.64-14.41-15.42-3.55-6.78-5.32-15.02-5.32-24.71,0-7.18,1.03-13.62,3.1-19.33,2.06-5.7,4.96-10.52,8.69-14.48,3.72-3.95,8.01-6.96,12.86-9.02,4.85-2.06,10.05-3.1,15.62-3.1s10.5,1.1,14.81,3.3c4.31,2.2,7.86,4.83,10.64,7.88l-8.35,9.56c-2.24-2.34-4.74-4.11-7.47-5.32-2.74-1.21-5.81-1.82-9.22-1.82-4.67,0-8.87,1.3-12.59,3.9-3.73,2.61-6.67,6.28-8.82,11.04s-3.23,10.41-3.23,16.97,1.03,12.5,3.1,17.3c2.06,4.8,4.98,8.48,8.75,11.04,3.77,2.56,8.17,3.84,13.2,3.84,3.77,0,7.14-.76,10.1-2.29,2.96-1.53,5.66-3.55,8.08-6.06l7.95,9.29c-3.59,4.13-7.63,7.27-12.12,9.43-4.49,2.15-9.52,3.23-15.08,3.23Z"/>
    <path class="cls-1" d="M631.59,395.76v-88.07h15.62v35.42h35.69v-35.42h15.62v88.07h-15.62v-39.05h-35.69v39.05h-15.62Z"/>
    <path class="cls-1" d="M755.08,397.38c-7.63,0-14.37-1.86-20.2-5.59-5.84-3.72-10.39-9.02-13.67-15.89-3.28-6.87-4.92-15.06-4.92-24.58s1.64-17.64,4.92-24.38c3.28-6.73,7.83-11.89,13.67-15.48,5.84-3.59,12.57-5.39,20.2-5.39s14.5,1.8,20.33,5.39c5.84,3.59,10.39,8.75,13.67,15.48,3.28,6.74,4.92,14.86,4.92,24.38s-1.64,17.71-4.92,24.58c-3.28,6.87-7.83,12.17-13.67,15.89-5.84,3.73-12.61,5.59-20.33,5.59ZM755.08,383.77c4.67,0,8.69-1.32,12.05-3.97,3.37-2.64,5.99-6.42,7.88-11.31,1.89-4.89,2.83-10.61,2.83-17.17s-.94-12.19-2.83-16.9c-1.89-4.71-4.51-8.35-7.88-10.91-3.37-2.56-7.39-3.84-12.05-3.84s-8.57,1.28-11.99,3.84c-3.41,2.56-6.06,6.19-7.95,10.91-1.89,4.71-2.83,10.35-2.83,16.9s.94,12.28,2.83,17.17c1.89,4.89,4.53,8.67,7.95,11.31,3.41,2.65,7.41,3.97,11.99,3.97Z"/>
    <path class="cls-1" d="M845.85,397.38c-7.63,0-14.37-1.86-20.2-5.59-5.84-3.72-10.39-9.02-13.67-15.89-3.28-6.87-4.92-15.06-4.92-24.58s1.64-17.64,4.92-24.38c3.28-6.73,7.83-11.89,13.67-15.48,5.84-3.59,12.57-5.39,20.2-5.39s14.5,1.8,20.33,5.39,10.39,8.75,13.67,15.48c3.28,6.74,4.92,14.86,4.92,24.38s-1.64,17.71-4.92,24.58c-3.28,6.87-7.83,12.17-13.67,15.89-5.84,3.73-12.61,5.59-20.33,5.59ZM845.85,383.77c4.67,0,8.69-1.32,12.05-3.97,3.37-2.64,5.99-6.42,7.88-11.31,1.89-4.89,2.83-10.61,2.83-17.17s-.94-12.19-2.83-16.9c-1.89-4.71-4.51-8.35-7.88-10.91-3.37-2.56-7.39-3.84-12.05-3.84s-8.57,1.28-11.99,3.84c-3.41,2.56-6.06,6.19-7.95,10.91-1.89,4.71-2.83,10.35-2.83,16.9s.94,12.28,2.83,17.17c1.89,4.89,4.53,8.67,7.95,11.31,3.41,2.65,7.41,3.97,11.99,3.97Z"/>
    <path class="cls-1" d="M902.41,395.76v-88.07h15.62v74.88h36.63v13.2h-52.25Z"/>
    <path class="cls-1" d="M81.08,537.68c-7.63,0-14.37-1.86-20.2-5.59-5.84-3.72-10.39-9.02-13.67-15.89-3.28-6.87-4.92-15.06-4.92-24.58s1.64-17.64,4.92-24.38c3.28-6.73,7.83-11.89,13.67-15.48,5.84-3.59,12.57-5.39,20.2-5.39s14.5,1.8,20.33,5.39c5.84,3.59,10.39,8.75,13.67,15.48,3.28,6.74,4.92,14.86,4.92,24.38s-1.64,17.71-4.92,24.58c-3.28,6.87-7.83,12.17-13.67,15.89-5.84,3.73-12.61,5.59-20.33,5.59ZM81.08,524.08c4.67,0,8.69-1.32,12.05-3.97,3.37-2.64,5.99-6.42,7.88-11.31,1.89-4.89,2.83-10.61,2.83-17.17s-.94-12.19-2.83-16.9c-1.89-4.71-4.51-8.35-7.88-10.91-3.37-2.56-7.39-3.84-12.05-3.84s-8.57,1.28-11.99,3.84c-3.41,2.56-6.06,6.19-7.95,10.91-1.89,4.71-2.83,10.35-2.83,16.9s.94,12.28,2.83,17.17c1.89,4.89,4.53,8.67,7.95,11.31,3.41,2.65,7.41,3.97,11.99,3.97Z"/>
    <path class="cls-1" d="M137.64,536.06v-88.07h53.19v13.2h-37.57v24.91h32.05v13.2h-32.05v36.77h-15.62Z"/>
    <path class="cls-1" d="M258.97,537.68c-6.11,0-11.87-1.12-17.3-3.37-5.43-2.24-10.26-5.43-14.48-9.56l8.48-10.24c3.14,3.05,6.8,5.41,10.98,7.07,4.17,1.66,8.37,2.49,12.59,2.49,5.03,0,8.84-1.03,11.45-3.1,2.6-2.07,3.9-4.8,3.9-8.22,0-2.42-.59-4.37-1.75-5.86-1.17-1.48-2.76-2.76-4.78-3.84-2.02-1.08-4.38-2.15-7.07-3.23l-12.12-5.25c-2.88-1.26-5.68-2.9-8.42-4.92-2.74-2.02-4.98-4.53-6.73-7.54-1.75-3.01-2.63-6.67-2.63-10.97,0-4.67,1.28-8.86,3.84-12.59,2.56-3.73,6.06-6.69,10.5-8.89s9.54-3.3,15.29-3.3c5.3,0,10.3.96,15.02,2.89,4.71,1.93,8.73,4.56,12.05,7.88l-8.21,10.23c-2.88-2.33-5.88-4.15-9.02-5.45-3.14-1.3-6.42-1.95-9.83-1.95-4.13,0-7.47.92-10.03,2.76-2.56,1.84-3.84,4.38-3.84,7.61,0,2.25.65,4.11,1.95,5.59,1.3,1.48,3.05,2.74,5.25,3.77,2.2,1.03,4.46,2.04,6.8,3.03l11.99,4.98c3.5,1.53,6.6,3.32,9.29,5.39,2.69,2.07,4.78,4.58,6.26,7.54,1.48,2.96,2.22,6.6,2.22,10.91,0,4.76-1.26,9.11-3.77,13.06-2.51,3.95-6.13,7.12-10.84,9.49-4.71,2.38-10.39,3.57-17.04,3.57Z"/>
    <path class="cls-1" d="M339.64,537.68c-5.12,0-9.72-.72-13.8-2.15-4.09-1.44-7.59-3.73-10.51-6.87-2.92-3.14-5.16-7.22-6.73-12.25-1.57-5.03-2.36-11.09-2.36-18.18v-50.23h15.62v51.44c0,6.19.74,11.09,2.22,14.68,1.48,3.59,3.57,6.15,6.26,7.67,2.69,1.53,5.79,2.29,9.29,2.29s6.75-.76,9.49-2.29c2.74-1.53,4.89-4.08,6.46-7.67,1.57-3.59,2.36-8.49,2.36-14.68v-51.44h14.95v50.23c0,7.09-.76,13.15-2.29,18.18-1.53,5.03-3.75,9.11-6.67,12.25-2.92,3.14-6.42,5.44-10.5,6.87-4.09,1.44-8.69,2.15-13.8,2.15Z"/>
    <path class="cls-1" d="M419.23,537.68c-6.11,0-11.87-1.12-17.3-3.37-5.43-2.24-10.26-5.43-14.48-9.56l8.48-10.24c3.14,3.05,6.8,5.41,10.98,7.07,4.17,1.66,8.37,2.49,12.59,2.49,5.03,0,8.84-1.03,11.45-3.1,2.6-2.07,3.9-4.8,3.9-8.22,0-2.42-.59-4.37-1.75-5.86-1.17-1.48-2.76-2.76-4.78-3.84-2.02-1.08-4.38-2.15-7.07-3.23l-12.12-5.25c-2.88-1.26-5.68-2.9-8.42-4.92-2.74-2.02-4.98-4.53-6.73-7.54-1.75-3.01-2.63-6.67-2.63-10.97,0-4.67,1.28-8.86,3.84-12.59,2.56-3.73,6.06-6.69,10.5-8.89,4.44-2.2,9.54-3.3,15.29-3.3,5.3,0,10.3.96,15.02,2.89,4.71,1.93,8.73,4.56,12.05,7.88l-8.21,10.23c-2.88-2.33-5.88-4.15-9.02-5.45-3.14-1.3-6.42-1.95-9.83-1.95-4.13,0-7.47.92-10.03,2.76-2.56,1.84-3.84,4.38-3.84,7.61,0,2.25.65,4.11,1.95,5.59,1.3,1.48,3.05,2.74,5.25,3.77,2.2,1.03,4.46,2.04,6.8,3.03l11.99,4.98c3.5,1.53,6.6,3.32,9.29,5.39,2.69,2.07,4.78,4.58,6.26,7.54,1.48,2.96,2.22,6.6,2.22,10.91,0,4.76-1.26,9.11-3.77,13.06-2.51,3.95-6.13,7.12-10.84,9.49-4.71,2.38-10.39,3.57-17.04,3.57Z"/>
    <path class="cls-1" d="M481.98,536.06v-74.88h-25.45v-13.2h66.53v13.2h-25.45v74.88h-15.62Z"/>
    <path class="cls-1" d="M520.9,536.06l28.68-88.07h18.32l28.68,88.07h-16.43l-13.47-46.86c-1.44-4.67-2.81-9.47-4.11-14.41-1.3-4.94-2.58-9.83-3.84-14.68h-.54c-1.17,4.94-2.4,9.86-3.7,14.75-1.3,4.89-2.67,9.67-4.11,14.34l-13.6,46.86h-15.89ZM537.87,512.23v-12.25h41.48v12.25h-41.48Z"/>
    <path class="cls-1" d="M607.49,536.06v-88.07h15.62v88.07h-15.62Z"/>
    <path class="cls-1" d="M645.47,536.06v-88.07h17.1l26.4,48.48c1.62,2.96,3.16,6.15,4.65,9.56,1.48,3.41,2.89,6.87,4.24,10.37h.54c-.36-4.76-.76-9.72-1.21-14.88-.45-5.16-.67-10.17-.67-15.01v-38.52h14.95v88.07h-17.1l-26.4-48.48c-1.62-2.96-3.21-6.15-4.78-9.56-1.57-3.41-3.03-6.87-4.38-10.37h-.54c.54,4.58,1.03,9.45,1.48,14.61.45,5.17.67,10.26.67,15.28v38.52h-14.95Z"/>
    <path class="cls-1" d="M722.5,536.06l28.68-88.07h18.32l28.68,88.07h-16.43l-13.47-46.86c-1.44-4.67-2.81-9.47-4.11-14.41-1.3-4.94-2.58-9.83-3.84-14.68h-.54c-1.17,4.94-2.4,9.86-3.7,14.75-1.3,4.89-2.67,9.67-4.11,14.34l-13.6,46.86h-15.89ZM739.47,512.23v-12.25h41.48v12.25h-41.48Z"/>
    <path class="cls-1" d="M809.09,536.06v-88.07h28.15c6.1,0,11.51.7,16.23,2.09,4.71,1.39,8.44,3.66,11.18,6.8,2.74,3.14,4.11,7.41,4.11,12.79,0,4.49-1.06,8.46-3.16,11.92-2.11,3.46-5.14,5.86-9.09,7.2v.54c5.21,1.07,9.31,3.26,12.32,6.53,3.01,3.28,4.51,7.83,4.51,13.67s-1.46,11-4.38,14.95c-2.92,3.95-6.93,6.87-12.05,8.75-5.12,1.89-10.91,2.83-17.37,2.83h-30.43ZM824.71,484.35h11.18c6.1,0,10.55-1.12,13.33-3.37,2.78-2.24,4.17-5.25,4.17-9.02,0-4.31-1.44-7.36-4.31-9.16-2.87-1.79-7.18-2.69-12.93-2.69h-11.45v24.24ZM824.71,523.94h13.2c6.46,0,11.45-1.19,14.95-3.57,3.5-2.38,5.25-6.04,5.25-10.97,0-4.67-1.71-8.06-5.12-10.17-3.41-2.11-8.44-3.16-15.08-3.16h-13.2v27.88Z"/>
    <path class="cls-1" d="M889.48,536.06v-88.07h15.62v88.07h-15.62Z"/>
    <path class="cls-1" d="M927.46,536.06v-88.07h15.62v74.88h36.63v13.2h-52.25Z"/>
    <path class="cls-1" d="M995.06,536.06v-88.07h15.62v88.07h-15.62Z"/>
    <path class="cls-1" d="M1050.82,536.06v-74.88h-25.45v-13.2h66.53v13.2h-25.45v74.88h-15.62Z"/>
    <path class="cls-1" d="M1119.09,536.06v-32.72l-26.4-55.35h16.7l9.56,22.49c1.26,3.32,2.51,6.53,3.77,9.63,1.25,3.1,2.6,6.35,4.04,9.77h.54c1.44-3.41,2.83-6.67,4.18-9.77,1.35-3.1,2.65-6.31,3.9-9.63l9.56-22.49h16.29l-26.53,55.35v32.72h-15.62Z"/>
  </g>
</svg>