<svg width="19" height="19" viewBox="0 0 19 19" fill="none" xmlns="http://www.w3.org/2000/svg">
<path d="M18.3043 16.442L13.4006 11.6703C13.5389 11.4885 13.6357 11.3609 13.7033 11.2712L13.7115 11.2603C13.7666 11.19 13.82 11.1194 13.8717 11.0473L13.8764 11.0412H13.8762C15.7973 8.36904 15.3719 4.58968 12.8312 2.13089C11.4115 0.756599 9.52379 0 7.51644 0C5.50893 0 3.62165 0.75666 2.20169 2.13073C0.781975 3.50479 0 5.33175 0 7.275C0 9.2181 0.781803 11.0453 2.20169 12.4191C3.61744 13.7895 5.50033 14.5443 7.50346 14.5443C8.70423 14.5443 9.90059 14.263 10.9711 13.7273C11.0914 13.6618 11.448 13.4613 11.7343 13.2372L16.7147 17.9468C16.7445 17.9756 16.9053 18.12 17.1391 18.12C17.2415 18.12 17.3946 18.0907 17.5426 17.9515L17.7914 17.7191C17.9814 17.542 18.1813 17.3557 18.3244 17.2173C18.6026 16.9479 18.4677 16.609 18.3045 16.4421L18.3043 16.442ZM7.48161 1.95768C10.5076 1.95768 12.9691 4.34022 12.9691 7.26886C12.9691 10.197 10.5076 12.5799 7.48161 12.5799C4.45565 12.5799 1.99395 10.1972 1.99395 7.26886C1.99395 4.34022 4.45565 1.95768 7.48161 1.95768Z" fill="black"/>
</svg>
