<?xml version="1.0" encoding="UTF-8"?>
<svg id="Layer_1" data-name="Layer 1" xmlns="http://www.w3.org/2000/svg" viewBox="0 0 1537.18 350">
  <defs>
    <style>
      .cls-1 {
        fill: #fff;
      }
    </style>
  </defs>
  <rect class="cls-1" x="738.32" y="25.04" width="5.86" height="146.53"/>
  <path class="cls-1" d="M206.18,123.23c-6.99,1.82-13.77,4.42-20.26,7.64-5.3,2.79-8.48,8.43-8.14,14.41-.47,3.77.89,7.5,3.6,10.13,2.71,2.64,6.49,3.86,10.21,3.31,5.18.13,10.27-1.36,14.59-4.24v-31.25ZM184.14,171.57c-25.02,0-26.89-18.88-26.89-24.42-.42-11.24,6.87-21.29,17.68-24.42,16.28-6.02,19.93-6.66,31.25-10.27v-2.83c.34-3.44-.09-6.96-1.14-10.27-2.55-6.95-9.45-11.28-16.83-10.55-7.16-.17-13.86,3.47-17.59,9.57l-.98,1.87-4.62-2.76.47-1.36c4.92-12.63,17.55-20.51,31.04-19.37,10.21-1.18,20.26,3.22,26.36,11.54,3.44,7.46,4.87,15.68,4.16,23.87v35.57c0,6.49.98,11.54,6.4,11.54,1.1.09,2.16-.26,3.01-.98l1.49-1.18,3.01,3.39-.98,1.31c-3.98,6.23-10.77,10.09-18.14,10.26-6.32.6-12.21-3.26-14.16-9.28-6.02,6.23-14.33,9.67-22.98,9.45l-.55-.67ZM184.14,171.57"/>
  <path class="cls-1" d="M31.76,171.44c-10.3.17-20.57-1.31-30.4-4.41H0v-26.55h5.34v1.87c.09,4.07,1.57,8.01,4.16,11.16,5.94,4.96,13.52,7.5,21.24,7.08,17.59,0,25.73-6.65,25.73-20.91,0-12.21-7.54-17.26-17.97-24.42l-1.65-1.23-10.98-7.34c-15.3-10.09-23.11-18.23-23.11-34.43,0-8.14,3.01-33.88,41.59-33.88,9.54,0,19.08.72,28.49,2.2h1.69v26.89h-5.05v-1.82c0-4.11-1.61-8.05-4.45-11.07-6.01-4.16-13.31-6.1-20.6-5.43-20.44,0-22.82,10.47-22.82,18.32,0,10.9,5.56,14.54,17.68,22.55l13.99,9.24c11.92,8.14,23.06,15.39,23.06,35.11,0,33.28-31.12,36.97-44.47,36.97l-.13.09ZM31.76,171.44"/>
  <path class="cls-1" d="M123.08,171.99c-14.25,0-22.09-5.13-25.57-16.28-1.14-6.27-1.52-12.63-1.14-18.95v-46.6h-12.12v-3.57l1.23-.5c3.69-1.36,7.16-3.35,10.26-5.85,6.11-5.26,11.24-11.58,15.14-18.66l2.03-3.48h3.99v20.7h31.32v11.36h-31.32v48.38c0,14.41,2.67,22.64,16.28,22.64,3.9,0,7.75-.89,11.32-2.55l1.86-.98,1.62,3.73-.8.89c-6.24,6.83-15.23,10.43-24.42,9.71h.34ZM123.08,171.99"/>
  <path class="cls-1" d="M248.29,170.76v-3.9h1.78c3.09-.22,6.02-1.57,8.14-3.82,2.84-3.18,3.02-10.97,3.02-26.62v-26.54c.8-6.27.21-12.63-1.79-18.66-2.16-2.12-5.12-3.27-8.14-3.18h-2.54v-5.25h3.52c5.47-.17,10.9-.76,16.28-1.82,3.44-.47,6.74-1.57,9.76-3.22l.98-.51,1.86,1.15v7.08c7.8-5.76,17.21-8.9,26.89-8.94,16.28,0,27.43,7.72,30.52,21.8.9,5.38,1.28,10.85,1.24,16.28v26.87c0,15.14.55,19.46,3.39,22.04,2.08,1.62,4.58,2.51,7.16,2.64h1.82v4.23h-4.57c-6.58,0-12.3-.59-18.23-.59s-12.68,0-20.9.72h-2.12v-3.65h1.61c2.8-.22,5.51-1.27,7.67-3.09,3.02-3.01,3.09-10.09,3.31-16.28v-19.46c.13-7-.13-13.99-.72-20.99.08-5.05-2.04-9.83-5.82-13.19-3.72-3.3-8.73-4.87-13.73-4.23-5.98-.17-11.92,1.14-17.26,3.81v48.38c0,15.14.67,19.46,3.52,22.06,2.04,1.56,4.49,2.5,7.08,2.58h1.79v4.24h-4.88c-6.36,0-11.91-.55-17.68-.55s-12.93,0-21.15.72h-2.03l.25-.09ZM248.29,170.76"/>
  <path class="cls-1" d="M362.97,170.76v-4.41h1.79c3.09-.16,6.01-1.56,8.14-3.81,2.83-3.18,2.92-10.9,2.92-26.55v-45.66h-11.87v-4.87l1.24-.51c3.81-1.44,7.41-3.34,10.72-5.68-.09-8.14.38-16.32,1.4-24.42,3.65-18.95,16.28-28.67,36.97-28.67,8.05-.13,15.94,2.38,22.47,7.08l.64.6v1.95l-9.12,12.68h-2.2l-.51-1.15c-2.29-6.57-8.52-10.97-15.52-10.9-3.39-.08-6.7,1.11-9.28,3.35-3.98,3.98-4.67,9.92-4.67,21.66v17.72h20.53v11.41h-20.18v51.05c-.81,6.87-.09,13.82,2.03,20.44,2.54,3.9,10.34,4.15,12.72,4.15h1.87v4.88h-2.04c-10.08-.6-17.68-.73-23.06-.73-6.83,0-14.62,0-22.85.73h-2.13v-.35ZM362.97,170.76"/>
  <path class="cls-1" d="M469.95,86.94c-4.71-.26-9.32,1.23-13.01,4.11-7.42,6.19-11.07,17.51-11.07,33.57,0,6.15,1.11,37.1,23.75,37.1,4.7.22,9.32-1.27,13.01-4.15,7.42-6.2,11.15-17.52,11.15-33.54,0-6.2-1.18-37.1-23.82-37.1h0ZM468.8,172.33c-28.06,0-44.85-17.43-44.85-46.73,0-22.8,12.29-49.35,46.8-49.35,28.07,0,44.86,17.52,44.86,46.81,0,22.73-12.3,48.84-46.81,48.84v.42ZM468.8,172.33"/>
  <path class="cls-1" d="M524.47,170.76v-4.61h1.82c3.1-.22,5.98-1.62,8.14-3.86,2.84-3.14,3.02-10.72,3.02-26.38v-26.03c.8-6.27.16-12.63-1.82-18.66-2.13-2.16-5.09-3.3-8.14-3.18h-2.51v-5.51h3.48c5.46-.12,10.93-.76,16.28-1.78,3.39-.5,6.7-1.36,9.88-2.63l1.05-.47,1.62.89v8.14c5.63-5.89,13.35-9.24,21.49-9.37,5.6-.25,11.11,1.57,15.48,5.13l.55.63v2.89l-8.14,14.24h-3.73l-.6-.93c-3.21-4.96-8.86-7.79-14.79-7.37-3.56-.13-7.08.89-10.01,2.92v46.3c-.76,6.83-.09,13.74,1.95,20.26,2.58,3.86,10.43,4.16,12.68,4.16h1.95v5.05h-2.04c-10.09-.55-17.64-.73-23.11-.73-6.83,0-14.54,0-22.76.73h-2.13l.38.16ZM524.47,170.76"/>
  <path class="cls-1" d="M647.89,87.49c-17.97,0-26.7,12.29-26.7,37.52,0,10.17,2.92,34.04,29.63,34.04h.8c5.13.09,10.18-1.27,14.59-3.85v-61.61c-5.05-4.41-11.61-6.65-18.32-6.19v.09ZM669.05,172.07l-2.42-.8v-8.14c-7.46,5.51-16.45,8.52-25.73,8.61-25.22,0-41.51-17.51-41.51-44.69-.04-8.39,1.61-16.7,4.96-24.42,7.97-16.79,25.27-27.13,43.88-26.2,6.01,0,12.04.55,17.97,1.69v-19.55c.76-6.7.17-13.52-1.78-20-2.12-2.17-5.09-3.35-8.14-3.18h-2.38v-4.07h1.95c6.61-.51,13.19-1.4,19.71-2.59,3.09-.42,6.15-1.14,9.12-2.12h.89l1.62.98v.89c-.64,7.59-.73,23.78-.73,35.92v74.96c-.72,6.87-.13,13.82,1.78,20.44,2.13,2.2,5.09,3.43,8.14,3.34h2.38v4.87h-1.95c-5.97.26-11.95.9-17.84,1.95-3.18.38-6.32,1.11-9.33,2.12h-.89.3ZM669.05,172.07"/>
  <path class="cls-1" d="M800.53,166.86h26.45c28.5,0,45.79-16.62,45.79-48.33s-17.29-47.49-46.64-47.49h-25.6v95.82ZM817.49,153.12v-68.34h7.46c19.33,0,30.36,10.34,30.36,33.74s-11.03,34.59-30.36,34.59h-7.46ZM817.49,153.12"/>
  <path class="cls-1" d="M929.25,168.55c25.11,0,42.41-18.99,42.41-50.03s-17.3-49.18-42.41-49.18-42.22,18.31-42.22,49.18,17.3,50.03,42.22,50.03h0ZM929.25,153.8c-15.09,0-24.76-13.74-24.76-35.28s9.67-34.43,24.76-34.43,24.77,13.06,24.77,34.43-9.67,35.28-24.77,35.28h0ZM929.25,153.8"/>
  <path class="cls-1" d="M990.85,166.86h59.19v-14.41h-42.22v-28.16h34.43v-14.41h-34.43v-24.42h40.7v-14.41h-57.67v95.82ZM990.85,166.86"/>
  <path class="cls-1" d="M1069.55,166.86h16.96v-37.48h14.58l20.7,37.48h18.99l-22.73-40.03c11.36-3.9,18.99-12.71,18.99-27.3,0-21.55-15.26-28.49-35.1-28.49h-32.4v95.82ZM1086.51,115.81v-31.21h13.57c13.06,0,20.35,3.9,20.35,14.92s-7.29,16.28-20.35,16.28h-13.57ZM1086.51,115.81"/>
  <path class="cls-1" d="M1156.25,166.86h16.96v-37.48h14.59l20.69,37.48h18.99l-22.73-40.03c11.36-3.9,18.99-12.71,18.99-27.3,0-21.55-15.26-28.49-35.1-28.49h-32.4v95.82ZM1173.21,115.81v-31.21h13.57c13.06,0,20.35,3.9,20.35,14.92s-7.29,16.28-20.35,16.28h-13.57ZM1173.21,115.81"/>
  <path class="cls-1" d="M31.92,323.06c16.79,0,27.14-10.18,27.14-22.9,0-11.86-7.12-17.29-16.44-21.37l-11.36-4.92c-6.27-2.71-13.23-5.59-13.23-13.22s5.94-11.71,14.92-11.71c7.47,0,13.23,2.89,18.15,7.47l5.43-6.61c-5.76-5.77-14.08-9.84-23.57-9.84-14.59,0-25.27,8.99-25.27,21.21s8.65,17.46,16.28,20.69l11.54,5.08c7.46,3.4,13.22,5.94,13.22,14.08s-6.27,13.06-16.62,13.06c-8.31,0-16.45-4.06-22.22-10l-6.1,7.12c6.95,7.12,16.95,11.87,28.14,11.87h0ZM31.92,323.06"/>
  <path class="cls-1" d="M105.02,323.06c10.52,0,18.31-4.42,24.58-11.71l-5.59-6.27c-5.09,5.6-10.85,8.99-18.48,8.99-15.26,0-24.93-12.71-24.93-32.9s10.01-32.23,25.27-32.23c6.78,0,12.04,3.06,16.28,7.47l5.6-6.61c-4.75-5.26-12.21-9.84-22.06-9.84-20.35,0-35.61,15.78-35.61,41.55s14.92,41.56,34.94,41.56h0ZM105.02,323.06"/>
  <path class="cls-1" d="M144.46,321.53h10.17v-37.65h37.14v37.65h10.34v-80.05h-10.34v33.58h-37.14v-33.58h-10.17v80.05ZM144.46,321.53"/>
  <path class="cls-1" d="M253.63,323.06c20.19,0,34.27-16.12,34.27-41.9s-14.08-41.21-34.27-41.21-34.26,15.43-34.26,41.21,14.08,41.9,34.26,41.9h0ZM253.63,314.06c-14.24,0-23.74-12.88-23.74-32.9s9.5-32.23,23.74-32.23,23.75,12.22,23.75,32.23-9.5,32.9-23.75,32.9h0ZM253.63,314.06"/>
  <path class="cls-1" d="M334.69,323.06c20.18,0,34.26-16.12,34.26-41.9s-14.08-41.21-34.26-41.21-34.26,15.43-34.26,41.21,14.08,41.9,34.26,41.9h0ZM334.69,314.06c-14.24,0-23.74-12.88-23.74-32.9s9.5-32.23,23.74-32.23,23.75,12.22,23.75,32.23-9.5,32.9-23.75,32.9h0ZM334.69,314.06"/>
  <path class="cls-1" d="M386.29,321.53h45.11v-8.65h-34.94v-71.4h-10.17v80.05ZM386.29,321.53"/>
  <path class="cls-1" d="M499.5,323.06c20.18,0,34.26-16.12,34.26-41.9s-14.08-41.21-34.26-41.21-34.27,15.43-34.27,41.21,14.08,41.9,34.27,41.9h0ZM499.5,314.06c-14.25,0-23.75-12.88-23.75-32.9s9.5-32.23,23.75-32.23,23.74,12.22,23.74,32.23-9.5,32.9-23.74,32.9h0ZM499.5,314.06"/>
  <path class="cls-1" d="M551.1,321.53h10.17v-35.95h30.53v-8.49h-30.53v-27.14h35.96v-8.48h-46.13v80.05ZM551.1,321.53"/>
  <path class="cls-1" d="M657.98,323.06c16.79,0,27.14-10.18,27.14-22.9,0-11.86-7.12-17.29-16.44-21.37l-11.36-4.92c-6.27-2.71-13.23-5.59-13.23-13.22s5.94-11.71,14.92-11.71c7.46,0,13.23,2.89,18.15,7.47l5.43-6.61c-5.76-5.77-14.08-9.84-23.58-9.84-14.59,0-25.27,8.99-25.27,21.21s8.65,17.46,16.28,20.69l11.53,5.08c7.47,3.4,13.23,5.94,13.23,14.08s-6.27,13.06-16.62,13.06c-8.31,0-16.45-4.06-22.22-10l-6.11,7.12c6.96,7.12,16.96,11.87,28.16,11.87h0ZM657.98,323.06"/>
  <path class="cls-1" d="M729.34,323.06c16.28,0,28.67-8.82,28.67-34.6v-46.98h-9.83v47.15c0,19.33-8.31,25.43-18.83,25.43s-18.82-6.1-18.82-25.43v-47.15h-10.01v46.98c0,25.78,12.38,34.6,28.83,34.6h0ZM729.34,323.06"/>
  <path class="cls-1" d="M800.57,323.06c16.79,0,27.13-10.18,27.13-22.9,0-11.86-7.12-17.29-16.45-21.37l-11.36-4.92c-6.27-2.71-13.22-5.59-13.22-13.22s5.94-11.71,14.92-11.71c7.46,0,13.22,2.89,18.15,7.47l5.43-6.61c-5.77-5.77-14.08-9.84-23.57-9.84-14.59,0-25.27,8.99-25.27,21.21s8.64,17.46,16.28,20.69l11.53,5.08c7.47,3.4,13.23,5.94,13.23,14.08s-6.27,13.06-16.62,13.06c-8.31,0-16.45-4.06-22.22-10l-6.11,7.12c6.96,7.12,16.96,11.87,28.16,11.87h0ZM800.57,323.06"/>
  <path class="cls-1" d="M857.73,321.53h10.17v-71.57h24.25v-8.48h-58.68v8.48h24.26v71.57ZM857.73,321.53"/>
  <path class="cls-1" d="M915.43,276.76c2.89-8.99,5.6-17.81,7.97-26.96h.51c2.55,9.15,5.09,17.97,7.98,26.96l3.9,12.21h-24.09l3.73-12.21ZM891.01,321.53h10.34l7.8-24.42h29.16l7.47,24.42h11.02l-27.14-80.05h-11.53l-27.14,80.05ZM891.01,321.53"/>
  <rect class="cls-1" x="968.21" y="241.48" width="10.18" height="80.05"/>
  <path class="cls-1" d="M1000.39,321.53h9.67v-41.89c0-8.49-.85-16.97-1.36-25.11h.51l8.64,16.62,29,50.37h10.52v-80.05h-9.67v41.39c0,8.3.68,17.46,1.19,25.43h-.51l-8.65-16.62-28.83-50.2h-10.52v80.05ZM1000.39,321.53"/>
  <path class="cls-1" d="M1093.08,276.76c2.89-8.99,5.6-17.81,7.97-26.96h.51c2.55,9.15,5.09,17.97,7.98,26.96l3.9,12.21h-24.09l3.73-12.21ZM1068.66,321.53h10.34l7.8-24.42h29.18l7.46,24.42h11.03l-27.13-80.05h-11.54l-27.14,80.05ZM1068.66,321.53"/>
  <path class="cls-1" d="M1145.9,321.53h25.44c17.97,0,30.53-7.63,30.53-23.4,0-11.03-6.78-17.3-16.45-19.17v-.51c7.63-2.54,11.7-9.5,11.7-17.46,0-14.08-11.19-19.5-27.47-19.5h-23.75v80.05ZM1156.08,275.57v-26.13h12.21c12.55,0,18.82,3.57,18.82,12.89,0,8.14-5.59,13.23-19.33,13.23h-11.7ZM1156.08,313.39v-30.02h13.9c13.9,0,21.88,4.42,21.88,14.41,0,10.69-8.14,15.61-21.88,15.61h-13.9ZM1156.08,313.39"/>
  <rect class="cls-1" x="1217.69" y="241.48" width="10.18" height="80.05"/>
  <path class="cls-1" d="M1249.86,321.53h45.12v-8.65h-34.94v-71.4h-10.18v80.05ZM1249.86,321.53"/>
  <rect class="cls-1" x="1309.27" y="241.48" width="10.18" height="80.05"/>
  <path class="cls-1" d="M1358.07,321.53h10.18v-71.57h24.25v-8.48h-58.68v8.48h24.25v71.57ZM1358.07,321.53"/>
  <path class="cls-1" d="M1418.03,321.53h10.34v-31.03l23.91-49.02h-10.52l-10.34,22.55c-2.38,5.76-5.25,11.54-7.97,17.46h-.51c-2.71-5.93-5.09-11.7-7.63-17.46l-10.52-22.55h-10.85l24.09,49.02v31.03ZM1418.03,321.53"/>
</svg>